<svg xmlns="http://www.w3.org/2000/svg" xmlns:xlink="http://www.w3.org/1999/xlink" viewBox="0 0 75 93.75" version="1.1" x="0px" y="0px"><g><path style="" d="M 71.941406 35.71875 C 70.910156 31.382812 69.617188 25.011719 65.542969 19.078125 C 64.953125 18.21875 63.101562 17.089844 62.167969 16.632812 C 57.164062 14.191406 55.421875 14.65625 52.277344 15.9375 C 51.203125 16.375 49.292969 17.746094 48.207031 18.148438 C 45.683594 19.074219 41.574219 19.542969 37.5 19.195312 C 33.429688 19.542969 29.320312 19.074219 26.796875 18.148438 C 25.707031 17.746094 23.796875 16.375 22.722656 15.9375 C 19.582031 14.65625 17.835938 14.191406 12.832031 16.632812 C 11.898438 17.089844 10.046875 18.21875 9.457031 19.078125 C 5.386719 25.011719 4.089844 31.382812 3.058594 35.71875 C 0.566406 46.191406 0.761719 52.199219 1.660156 59.105469 C 2.707031 67.132812 9.816406 64.011719 10.386719 63.757812 C 17.574219 60.589844 20.066406 55.273438 24.058594 53.898438 C 28.945312 52.210938 37.5 52.296875 37.5 52.296875 C 37.5 52.296875 46.054688 52.210938 50.941406 53.898438 C 54.933594 55.277344 57.425781 60.589844 64.613281 63.761719 C 65.183594 64.011719 72.292969 67.132812 73.339844 59.105469 C 74.238281 52.199219 74.4375 46.191406 71.941406 35.71875 Z M 17.371094 32.304688 C 14.796875 32.304688 12.714844 30.21875 12.714844 27.648438 C 12.714844 25.078125 14.796875 22.992188 17.371094 22.992188 C 19.941406 22.992188 22.023438 25.078125 22.023438 27.648438 C 22.023438 30.21875 19.941406 32.304688 17.371094 32.304688 Z M 33.640625 42.839844 C 33.640625 43.167969 33.375 43.433594 33.046875 43.433594 L 29.820312 43.433594 L 29.820312 46.664062 C 29.820312 46.988281 29.554688 47.253906 29.226562 47.253906 L 27 47.253906 C 26.671875 47.253906 26.40625 46.988281 26.40625 46.664062 L 26.40625 43.433594 L 23.179688 43.433594 C 22.851562 43.433594 22.585938 43.167969 22.585938 42.839844 L 22.585938 40.617188 C 22.585938 40.289062 22.851562 40.023438 23.179688 40.023438 L 26.40625 40.023438 L 26.40625 36.792969 C 26.40625 36.46875 26.671875 36.203125 27 36.203125 L 29.226562 36.203125 C 29.554688 36.203125 29.820312 36.46875 29.820312 36.792969 L 29.820312 40.023438 L 33.046875 40.023438 C 33.375 40.023438 33.640625 40.289062 33.640625 40.617188 Z M 58.210938 21.132812 C 59.882812 21.132812 61.238281 22.488281 61.238281 24.15625 C 61.238281 25.828125 59.882812 27.183594 58.210938 27.183594 C 56.539062 27.183594 55.1875 25.828125 55.1875 24.15625 C 55.1875 22.488281 56.542969 21.132812 58.210938 21.132812 Z M 45.570312 46.382812 C 42.996094 46.382812 40.914062 44.300781 40.914062 41.726562 C 40.914062 39.15625 42.996094 37.074219 45.570312 37.074219 C 48.140625 37.074219 50.222656 39.15625 50.222656 41.726562 C 50.222656 44.300781 48.140625 46.382812 45.570312 46.382812 Z M 52.625 32.769531 C 50.957031 32.769531 49.601562 31.414062 49.601562 29.742188 C 49.601562 28.074219 50.953125 26.71875 52.625 26.71875 C 54.296875 26.71875 55.652344 28.070312 55.652344 29.742188 C 55.652344 31.414062 54.296875 32.769531 52.625 32.769531 Z M 58.210938 38.351562 C 56.542969 38.351562 55.1875 37 55.1875 35.328125 C 55.1875 33.65625 56.539062 32.304688 58.210938 32.304688 C 59.882812 32.304688 61.238281 33.65625 61.238281 35.328125 C 61.238281 37 59.882812 38.351562 58.210938 38.351562 Z M 63.796875 32.769531 C 62.125 32.769531 60.769531 31.414062 60.769531 29.742188 C 60.769531 28.074219 62.125 26.71875 63.796875 26.71875 C 65.46875 26.71875 66.824219 28.070312 66.824219 29.742188 C 66.824219 31.414062 65.46875 32.769531 63.796875 32.769531 Z M 63.796875 32.769531 " stroke="none" fill-rule="nonzero" fill="rgb(0%,0%,0%)" fill-opacity="1"/></g></svg>